<svg xmlns="http://www.w3.org/2000/svg" width="106" height="46" fill="none"><path fill="#fff" d="M7.815 18 3.135 3.6h2.17l3.99 12.29 4.04-12.29h2.17L10.825 18h-3.01Zm14.398 0V3.6h9.2v1.97h-7.11v4.04h5.91v1.97h-5.91v4.45h7.11V18h-9.2Zm17.002 0V3.6h2.09v12.43h6.52V18h-8.61ZM56.5 18 51.82 3.6h2.17l3.99 12.29L62.02 3.6h2.17L59.51 18H56.5Zm14.398 0V3.6h9.2v1.97h-7.11v4.04h5.91v1.97h-5.91v4.45h7.11V18h-9.2Zm20.391 0V5.57H86.5V3.6h11.67v1.97h-4.79V18h-2.09Z"/><path stroke="#fff" stroke-linecap="round" stroke-width=".5" d="M1 23h104"/><path fill="#fff" d="M9.557 44.3c-1.033 0-1.966-.177-2.8-.53a5.372 5.372 0 0 1-2.05-1.53c-.533-.667-.88-1.457-1.04-2.37l2.18-.33c.22.88.68 1.567 1.38 2.06.7.487 1.517.73 2.45.73.58 0 1.114-.09 1.6-.27.487-.187.877-.45 1.17-.79.3-.347.45-.76.45-1.24a1.615 1.615 0 0 0-.51-1.21 2.002 2.002 0 0 0-.57-.39 4.273 4.273 0 0 0-.73-.29l-3.69-1.09a8.914 8.914 0 0 1-1.1-.41 4.34 4.34 0 0 1-1.03-.67 3.286 3.286 0 0 1-.75-1.03c-.193-.413-.29-.913-.29-1.5 0-.887.227-1.637.68-2.25.46-.62 1.08-1.087 1.86-1.4.78-.32 1.654-.48 2.62-.48.974.013 1.844.187 2.61.52a4.938 4.938 0 0 1 1.92 1.44c.514.62.867 1.373 1.06 2.26l-2.24.38a2.94 2.94 0 0 0-.64-1.39 3.206 3.206 0 0 0-1.2-.9 3.82 3.82 0 0 0-1.54-.33 3.767 3.767 0 0 0-1.47.24c-.44.173-.793.417-1.06.73-.26.313-.39.673-.39 1.08 0 .4.117.723.35.97.234.247.52.443.86.59.347.14.69.257 1.03.35l2.66.75c.334.093.71.22 1.13.38.427.153.837.37 1.23.65.4.28.73.653.99 1.12.26.46.39 1.04.39 1.74 0 .727-.146 1.367-.44 1.92a4.066 4.066 0 0 1-1.21 1.38 5.502 5.502 0 0 1-1.76.83 7.79 7.79 0 0 1-2.11.28Zm9.652-.3V29.6h9.2v1.97h-7.11v4.04h5.91v1.97h-5.91v4.45h7.11V44h-9.2Zm19.103.3c-1.44 0-2.666-.313-3.68-.94-1.013-.633-1.79-1.513-2.33-2.64-.533-1.127-.8-2.433-.8-3.92s.267-2.793.8-3.92c.54-1.127 1.317-2.003 2.33-2.63 1.014-.633 2.24-.95 3.68-.95 1.66 0 3.034.42 4.12 1.26 1.094.84 1.854 1.97 2.28 3.39l-2.12.57c-.28-1.007-.78-1.797-1.5-2.37-.713-.573-1.64-.86-2.78-.86-1.02 0-1.87.23-2.55.69-.68.46-1.193 1.103-1.54 1.93-.34.827-.51 1.79-.51 2.89-.006 1.1.16 2.063.5 2.89.347.827.86 1.47 1.54 1.93.687.46 1.54.69 2.56.69 1.14 0 2.067-.287 2.78-.86.72-.58 1.22-1.37 1.5-2.37l2.12.57c-.426 1.42-1.186 2.55-2.28 3.39-1.086.84-2.46 1.26-4.12 1.26Zm10.6-.3V29.6h5.82c.14 0 .313.007.52.02.206.007.403.027.59.06.8.127 1.466.4 2 .82.54.42.943.95 1.21 1.59.266.64.4 1.347.4 2.12 0 1.147-.294 2.137-.88 2.97-.587.827-1.467 1.343-2.64 1.55l-.85.1h-4.08V44h-2.09Zm8.42 0-2.84-5.86 2.11-.54 3.12 6.4h-2.39Zm-6.33-7.15h3.65c.133 0 .28-.007.44-.02.166-.013.323-.037.47-.07.426-.1.77-.283 1.03-.55.26-.273.446-.587.56-.94a3.359 3.359 0 0 0 0-2.11 2.338 2.338 0 0 0-.56-.93c-.26-.273-.604-.46-1.03-.56a2.556 2.556 0 0 0-.47-.08 5.345 5.345 0 0 0-.44-.02h-3.65v5.28ZM63.919 44V29.6h9.2v1.97h-7.11v4.04h5.91v1.97h-5.91v4.45h7.11V44h-9.2Zm17.192 0V31.57h-4.79V29.6h11.67v1.97h-4.79V44h-2.09Zm15.7.3c-1.033 0-1.966-.177-2.8-.53a5.371 5.371 0 0 1-2.05-1.53c-.533-.667-.88-1.457-1.04-2.37l2.18-.33c.22.88.68 1.567 1.38 2.06.7.487 1.517.73 2.45.73.58 0 1.114-.09 1.6-.27.487-.187.877-.45 1.17-.79.3-.347.45-.76.45-1.24 0-.26-.046-.49-.14-.69-.086-.2-.21-.373-.37-.52a2.002 2.002 0 0 0-.57-.39 4.273 4.273 0 0 0-.73-.29l-3.69-1.09a8.912 8.912 0 0 1-1.1-.41 4.34 4.34 0 0 1-1.03-.67 3.285 3.285 0 0 1-.75-1.03c-.193-.413-.29-.913-.29-1.5 0-.887.227-1.637.68-2.25.46-.62 1.08-1.087 1.86-1.4.78-.32 1.654-.48 2.62-.48.974.013 1.844.187 2.61.52a4.93 4.93 0 0 1 1.92 1.44c.514.62.867 1.373 1.06 2.26l-2.24.38a2.94 2.94 0 0 0-.64-1.39 3.206 3.206 0 0 0-1.2-.9 3.82 3.82 0 0 0-1.54-.33 3.767 3.767 0 0 0-1.47.24c-.44.173-.793.417-1.06.73-.26.313-.39.673-.39 1.08 0 .4.117.723.35.97.234.247.52.443.86.59.347.14.69.257 1.03.35l2.66.75c.334.093.71.22 1.13.38.427.153.837.37 1.23.65.4.28.73.653.99 1.12.26.46.39 1.04.39 1.74 0 .727-.146 1.367-.44 1.92a4.056 4.056 0 0 1-1.21 1.38 5.493 5.493 0 0 1-1.76.83 7.79 7.79 0 0 1-2.11.28Z"/></svg>