<svg xmlns="http://www.w3.org/2000/svg" width="28" height="28" fill="none"><g stroke="#121212" stroke-miterlimit="10" stroke-width="1.167" clip-path="url(#a)"><path d="M27.416 27.417H.583l.7-4.667c.292-2.1 1.983-3.792 4.083-4.142l3.267-.525c1.05-.233 2.217 0 3.092.584L14 20.417l2.216-1.692c.934-.642 2.042-.817 3.15-.642l3.267.525c2.1.35 3.792 1.984 4.083 4.142l.7 4.667ZM19.25 6.417c0-3.209-2.1-5.834-5.25-5.834S8.75 3.208 8.75 6.417c0 1.516.233 6.416-3.5 6.416v.584c2.858.758 5.775 1.108 8.75 1.166 2.975-.058 5.892-.408 8.75-1.166v-.584c-3.617 0-3.5-5.25-3.5-6.416Z"/></g><defs><clipPath id="a"><path fill="#fff" d="M0 0h28v28H0z"/></clipPath></defs></svg>