<svg xmlns="http://www.w3.org/2000/svg" width="28" height="28" fill="none"><g stroke="#fff" stroke-miterlimit="10" stroke-width="1.167" clip-path="url(#a)"><path d="M27.417 27.417H.583l.7-4.667c.292-2.1 1.984-3.791 4.084-4.141l3.266-.525c1.05-.234 2.217 0 3.092.583L14 20.417l2.217-1.692c.933-.641 2.041-.816 3.15-.641l3.266.525c2.1.35 3.792 1.983 4.084 4.141l.7 4.667ZM19.25 6.417c0-3.208-2.1-5.834-5.25-5.834S8.75 3.208 8.75 6.417c0 1.517.233 6.417-3.5 6.417v.583c2.858.758 5.775 1.108 8.75 1.167 2.975-.059 5.892-.409 8.75-1.167v-.583c-3.617 0-3.5-5.25-3.5-6.417Z"/></g><defs><clipPath id="a"><path fill="#fff" d="M0 0h28v28H0z"/></clipPath></defs></svg>