<svg width="41" height="40" viewBox="0 0 41 40" fill="none" xmlns="http://www.w3.org/2000/svg">
<rect x="0.5" width="40" height="40" rx="20" fill="#121212"/>
<path fill-rule="evenodd" clip-rule="evenodd" d="M11.7625 27.0568C11.3702 26.9408 11.0123 26.7343 10.719 26.4549C10.4256 26.1754 10.2054 25.8312 10.0769 25.4512C9.34292 23.4874 9.12543 15.2869 10.5391 13.6681C11.0096 13.1414 11.6739 12.8172 12.3878 12.7658C16.1802 12.3677 27.8975 12.4208 29.2432 12.8985C29.6217 13.0183 29.9675 13.2203 30.2547 13.4891C30.5419 13.758 30.763 14.0868 30.9015 14.451C31.7035 16.4812 31.7307 23.8589 30.7928 25.8095C30.544 26.3173 30.1275 26.7285 29.6102 26.9772C28.1965 27.6672 13.6383 27.6539 11.7625 27.0568ZM17.7842 23.2087L24.5808 19.7587L17.7842 16.2821V23.2087Z" fill="white"/>
</svg>
