<svg width="41" height="40" viewBox="0 0 41 40" fill="none" xmlns="http://www.w3.org/2000/svg">
<g clip-path="url(#clip0_758_7177)">
<rect x="0.5" width="40" height="40" rx="20" fill="#121212"/>
<path d="M30.4762 14.2536C29.0829 14.2535 27.7467 13.7 26.7615 12.7148C25.7763 11.7296 25.2228 10.3933 25.2229 9H21.4695V23.6974C21.4688 24.3675 21.2572 25.0203 20.8648 25.5635C20.4723 26.1066 19.9188 26.5124 19.2828 26.7234C18.6468 26.9344 17.9605 26.9399 17.3212 26.7391C16.682 26.5382 16.1221 26.1413 15.721 25.6045C15.3199 25.0677 15.0979 24.4183 15.0865 23.7483C15.0751 23.0783 15.2749 22.4217 15.6575 21.8716C16.0401 21.3215 16.5862 20.9058 17.2183 20.6833C17.8504 20.4609 18.5364 20.443 19.1792 20.6323V16.9837C17.8132 16.7995 16.4234 17.0364 15.1955 17.6629C13.9677 18.2893 12.9601 19.2755 12.3074 20.4896C11.6548 21.7037 11.388 23.0881 11.5429 24.4578C11.6977 25.8275 12.2667 27.1174 13.1739 28.1552C14.0811 29.193 15.2834 29.9294 16.6201 30.266C17.9568 30.6025 19.3644 30.5233 20.6549 30.0388C21.9454 29.5543 23.0574 28.6876 23.8424 27.5545C24.6273 26.4214 25.0479 25.0758 25.048 23.6974L25.1575 16.2683C26.6997 17.4004 28.5635 18.0096 30.4766 18.0067L30.4762 14.2536Z" fill="white"/>
</g>
<defs>
<clipPath id="clip0_758_7177">
<rect width="40" height="40" fill="white" transform="translate(0.5)"/>
</clipPath>
</defs>
</svg>
